# xmcd CD database file
#
# Track frame offsets:
#	150
#	21572
#	39587
#	57357
#	82837
#	95875
#	117350
#	136565
#	155410
#	175070
#
# Disc length: 2606 seconds
#
# Revision: 2
# Processed by: cddbd v1.5.1PL2 Copyright (c) Steve Scherf et al.
# Submitted via: CDex 1.51
#
DISCID=7c0a2c0a
DTITLE=The Great Jazz Trio - The Club New Yorker
DYEAR=1983
DGENRE=Jazz
TTITLE0=S' Wonderful
TTITLE1=Autumn in New York
TTITLE2=Our Love is Here to Stay
TTITLE3=I've Got a Crush on You
TTITLE4=Manhattan
TTITLE5=Someone to Watch Over Me
TTITLE6=They Can't Take That Away from Me
TTITLE7=Isn't It Romantic
TTITLE8=Embraceable You
TTITLE9=But Not for Me
EXTD=YEAR: 1983
EXTT0=
EXTT1=
EXTT2=
EXTT3=
EXTT4=
EXTT5=
EXTT6=
EXTT7=
EXTT8=
EXTT9=
PLAYORDER=
